<svg viewBox="0 0 200 48" xmlns="http://www.w3.org/2000/svg">
  <defs>
    
  </defs>

  
  <g id="logo-horizontal">
    
    <g transform="translate(6, 12)">
      
      <circle class="pig-icon" cx="8" cy="10" r="2.5"></circle>
      
      <circle class="pig-icon" cx="8" cy="4" r="3.5"></circle>
      
      <rect class="pig-icon" x="2" y="-0.5" width="2" height="3" rx="1"></rect>
      
      <rect class="pig-icon" x="12" y="-0.5" width="2" height="3" rx="1"></rect>
      
      <ellipse class="pig-icon" cx="8" cy="11" rx="4" ry="5"></ellipse>
      
      <rect class="pig-icon" x="3.5" y="15" width="1.5" height="3" rx="0.75"></rect>
      
      <rect class="pig-icon" x="11" y="15" width="1.5" height="3" rx="0.75"></rect>
      
      <rect class="pig-icon" x="4.5" y="15.5" width="1.5" height="2.5" rx="0.75"></rect>
      
      <rect class="pig-icon" x="10" y="15.5" width="1.5" height="2.5" rx="0.75"></rect>
      
      <path class="pig-icon" d="M 12.5 11 Q 15 10 15.5 8" stroke="#059669" stroke-width="1.2" fill="none" stroke-linecap="round"></path>
    </g>

    
    <text class="text-logo" x="32" y="27">PorcTrack</text>
  </g>

  
  <g id="logo-icon" transform="translate(120, 0)">
    
    <rect x="0" y="0" width="48" height="48" fill="none"></rect>

    
    <g transform="translate(24, 24)">
      
      <circle class="pig-icon" cx="0" cy="4" r="2.5"></circle>
      
      <circle class="pig-icon" cx="0" cy="-2" r="4"></circle>
      
      <rect class="pig-icon" x="-5" y="-6" width="2.5" height="4" rx="1.2"></rect>
      
      <rect class="pig-icon" x="2.5" y="-6" width="2.5" height="4" rx="1.2"></rect>
      
      <ellipse class="pig-icon" cx="0" cy="6" rx="5" ry="6"></ellipse>
      
      <rect class="pig-icon" x="-4" y="12" width="2" height="4" rx="1"></rect>
      
      <rect class="pig-icon" x="2" y="12" width="2" height="4" rx="1"></rect>
      
      <rect class="pig-icon" x="-2.5" y="12.5" width="2" height="3" rx="1"></rect>
      
      <rect class="pig-icon" x="0.5" y="12.5" width="2" height="3" rx="1"></rect>
      
      <path class="pig-icon" d="M 5.5 5 Q 8.5 3 9.5 0" stroke="#059669" stroke-width="1.5" fill="none" stroke-linecap="round" stroke-linejoin="round"></path>
    </g>
  </g>
</svg>