<svg viewBox="0 0 1080 1920" xmlns="http://www.w3.org/2000/svg">
  <!-- Fond blanc -->
  <rect width="1080" height="1920" fill="#FFFFFF"/>

  <!-- Logo cochon géométrique au centre (petit, ~120px) -->
  <!-- Groupe logo centré verticalement plus haut -->
  <g transform="translate(540, 850)">
    <!-- Tête (cercle) -->
    <circle cx="0" cy="-30" r="40" fill="#059669"/>

    <!-- Snout (museau - petit cercle) -->
    <circle cx="0" cy="10" r="12" fill="#059669"/>

    <!-- Oreilles -->
    <ellipse cx="-25" cy="-60" rx="11" ry="22" fill="#059669" transform="rotate(-25 -25 -60)"/>
    <ellipse cx="25" cy="-60" rx="11" ry="22" fill="#059669" transform="rotate(25 25 -60)"/>

    <!-- Yeux -->
    <circle cx="-12" cy="-40" r="4" fill="white"/>
    <circle cx="12" cy="-40" r="4" fill="white"/>

    <!-- Narines du museau -->
    <circle cx="-5" cy="12" r="2" fill="white"/>
    <circle cx="5" cy="12" r="2" fill="white"/>

    <!-- Corps (rectangle arrondi) -->
    <rect x="-30" y="25" width="60" height="50" rx="10" ry="10" fill="#059669"/>

    <!-- 4 pattes -->
    <rect x="-20" y="75" width="10" height="30" rx="5" ry="5" fill="#059669"/>
    <rect x="10" y="75" width="10" height="30" rx="5" ry="5" fill="#059669"/>
    <rect x="-10" y="75" width="10" height="30" rx="5" ry="5" fill="#059669"/>
    <rect x="0" y="75" width="10" height="30" rx="5" ry="5" fill="#059669"/>
  </g>

  <!-- Texte "PorcTrack" -->
  <text x="540" y="1150" font-family="Arial, sans-serif" font-size="96" font-weight="bold" text-anchor="middle" fill="#111827">
    PorcTrack
  </text>

  <!-- Sous-titre "Intelligence Terrain" -->
  <text x="540" y="1240" font-family="Arial, sans-serif" font-size="48" text-anchor="middle" fill="#9CA3AF">
    Intelligence Terrain
  </text>
</svg>
